<svg xmlns="http://www.w3.org/2000/svg" fill="none" viewBox="0 0 18 18"><path d="M9 2C5.14 2 2 5.14 2 9s3.14 7 7 7 7-3.14 7-7-3.14-7-7-7Zm0 1c3.32 0 6 2.68 6 6 0 1.516-.61 2.86-1.533 3.914C12.672 11.21 10.999 10 9 10c-1.963-.002-3.657 1.183-4.465 2.916C3.61 11.861 3 10.517 3 9c0-3.32 2.68-6 6-6Zm0 1c-.611 0-1.229.202-1.707.627S6.5 5.708 6.5 6.5s.315 1.448.793 1.873A2.562 2.562 0 0 0 9 9c.611 0 1.229-.202 1.707-.627S11.5 7.292 11.5 6.5s-.315-1.448-.793-1.873A2.562 2.562 0 0 0 9 4Zm0 1c.389 0 .771.131 1.043.373.272.242.457.585.457 1.127s-.185.885-.457 1.127A1.581 1.581 0 0 1 9 8c-.389 0-.771-.131-1.043-.373C7.685 7.385 7.5 7.042 7.5 6.5s.185-.885.457-1.127A1.581 1.581 0 0 1 9 5Zm0 6c1.717 0 3.085 1.132 3.65 2.645C11.63 14.446 10.401 15 9 15c-1.4 0-2.629-.553-3.648-1.354C5.93 12.102 7.322 11 9 11Z" style="color:#000;vector-effect:non-scaling-stroke;fill:currentColor;stroke-miterlimit:10;-inkscape-stroke:none"/></svg>