<svg xmlns="http://www.w3.org/2000/svg" fill="none" viewBox="0 0 18 18"><path fill="currentColor" fill-rule="evenodd" d="M13.667 14.833a1.166 1.166 0 1 0 2.332.001 1.166 1.166 0 0 0-2.332 0zm-5.834 0a1.166 1.166 0 1 0 2.333.001 1.166 1.166 0 0 0-2.333 0zm-5.833 0a1.166 1.166 0 1 0 2.333.001 1.166 1.166 0 0 0-2.333 0zM13.667 9a1.166 1.166 0 1 0 2.332 0 1.166 1.166 0 0 0-2.332 0zM7.833 9a1.166 1.166 0 1 0 2.333 0 1.166 1.166 0 0 0-2.333 0zM2 9a1.166 1.166 0 1 0 2.333 0A1.166 1.166 0 0 0 2 9zm14-5.833a1.166 1.166 0 1 0-2.333-.001 1.166 1.166 0 0 0 2.333 0zm-8.167 0a1.166 1.166 0 1 0 2.333 0 1.166 1.166 0 0 0-2.333 0zM2 3.167a1.166 1.166 0 1 0 2.333 0 1.166 1.166 0 0 0-2.333 0z" clip-rule="evenodd"/></svg>