<svg xmlns="http://www.w3.org/2000/svg" fill="none" viewBox="0 0 18 18"><path d="M8.705 2v1.107c-1.666.149-3.068 1.294-3.068 2.868 0 1.21.904 1.983 1.697 2.402.692.365 1.208.458 1.371.492v5.027C7.178 13.751 6 12.738 6 11.475H5c0 1.887 1.676 3.334 3.705 3.472V16h1v-1.125c1.833-.3 3.295-1.644 3.295-3.4C13 10 11.935 9.079 10.977 8.59c-.642-.328-.923-.346-1.272-.424V4.25c.968.284 1.756.929 1.756 1.75v.5h1V6c0-1.454-1.273-2.44-2.756-2.748V2Zm0 2.104v3.714c-.233-.059-.458-.09-.904-.326-.639-.337-1.164-.803-1.164-1.517 0-.962.895-1.73 2.068-1.871zm1 5.101c.303.083.414.069.818.275.792.405 1.477.993 1.477 1.995 0 1.134-1.006 1.978-2.295 2.277z" style="color:#000;vector-effect:non-scaling-stroke;fill:currentColor;-inkscape-stroke:none"/></svg>