<svg xmlns="http://www.w3.org/2000/svg" fill="none" viewBox="0 0 18 18"><path d="M9 1.5c-1.111 0-2.229.369-3.082 1.127C5.065 3.385 4.5 4.542 4.5 6v7.2c0 1.058.415 1.916 1.043 2.474.628.558 1.447.826 2.258.826.81 0 1.628-.268 2.256-.826.628-.558 1.043-1.416 1.043-2.475V7.6s.006-.578-.237-1.185a2.188 2.188 0 0 0-.619-.885A1.932 1.932 0 0 0 9 5.1c-.504 0-.935.173-1.244.43a2.188 2.188 0 0 0-.62.885C6.895 7.021 6.9 7.6 6.9 7.6v4h1v-4s.007-.422.164-.815c.08-.196.19-.37.33-.488.142-.118.31-.197.606-.197s.464.08.605.197c.142.117.252.292.33.488a2.6 2.6 0 0 1 .165.815v5.6c0 .808-.286 1.35-.707 1.726-.422.375-1.003.574-1.592.574-.59 0-1.172-.2-1.594-.574-.422-.375-.707-.918-.707-1.727V6c0-1.208.435-2.052 1.082-2.627C7.229 2.798 8.112 2.5 9 2.5c.889 0 1.771.298 2.418.873C12.065 3.948 12.5 4.792 12.5 6v4.646h1V6c0-1.458-.565-2.615-1.418-3.373S10.112 1.5 9 1.5Z" style="color:#000;vector-effect:non-scaling-stroke;fill:currentColor;-inkscape-stroke:none"/></svg>