<svg xmlns="http://www.w3.org/2000/svg" fill="none" viewBox="0 0 18 18"><path d="M8.22 3v1.945L4.243 5.9l.09.377-.37-.115-1.942 6.223.369.115h-.391c0 .746.295 1.355.74 1.75a2.39 2.39 0 0 0 1.594.584c.573 0 1.15-.189 1.596-.584.445-.395.74-1.004.74-1.75h-.39l.37-.115-1.82-5.826 8.164-1.957-1.644 5.85.37.105-.384.007c.017.73.316 1.325.758 1.711a2.39 2.39 0 0 0 1.576.57 2.39 2.39 0 0 0 1.576-.57c.442-.386.74-.98.756-1.71l-.387-.008v-.002l.371-.116-1.906-6.1.068-.015-.181-.758-4.967 1.192V3Zm5.366 2.371 1.498 4.797h-2.848ZM4.334 7.584l1.414 4.527H2.92zm7.95 3.361h2.767c-.084.274-.134.583-.319.744a1.627 1.627 0 0 1-1.064.38c-.393 0-.781-.132-1.064-.38-.185-.16-.237-.47-.32-.744zM2.935 12.89H5.73c-.078.29-.128.61-.318.779-.284.253-.68.389-1.08.389s-.794-.136-1.078-.389c-.19-.169-.24-.489-.318-.78Z" style="color:#000;vector-effect:non-scaling-stroke;fill:currentColor;-inkscape-stroke:none"/></svg>