<svg xmlns="http://www.w3.org/2000/svg" fill="none" viewBox="0 0 18 18"><path d="M1.5 2.5v12h1v-1.57h13v1.57h1V8.5c0-1.151-.979-2.07-2.146-2.07H7.266v3.14H2.5V2.5Zm3.383 2.75c-1.167 0-2.149.92-2.149 2.07 0 1.151.98 2.073 2.149 2.073 1.168 0 2.146-.921 2.146-2.073v-.5h-.216c-.258-.872-.961-1.57-1.93-1.57Zm0 1c.652 0 1.146.487 1.146 1.07 0 .585-.494 1.073-1.146 1.073-.652 0-1.149-.488-1.149-1.073 0-.583.498-1.07 1.149-1.07Zm3.383 1.18h6.088c.652 0 1.146.485 1.146 1.07v1.07H8.266ZM2.5 10.57h13v1.36h-13Z" style="color:#000;vector-effect:non-scaling-stroke;fill:currentColor;stroke-linecap:square;-inkscape-stroke:none"/></svg>