<svg xmlns="http://www.w3.org/2000/svg" fill="none" viewBox="0 0 18 18"><path d="M2 2.5v10c0 1.097.266 2 .883 2.617.616.617 1.52.883 2.617.883h10v-1h-10c-.94 0-1.536-.216-1.91-.59-.374-.374-.59-.97-.59-1.91v-10Zm10 .998c-.611 0-1.229.202-1.707.627s-.795 1.081-.795 1.873.315 1.45.793 1.875a2.561 2.561 0 0 0 1.707.627c.611 0 1.23-.202 1.709-.627.478-.425.793-1.081.793-1.873s-.315-1.45-.793-1.875A2.561 2.561 0 0 0 12 3.498Zm0 1c.389 0 .771.133 1.043.375.272.242.457.585.457 1.127s-.185.885-.457 1.127A1.58 1.58 0 0 1 12 7.5c-.389 0-.771-.133-1.043-.375-.272-.242-.46-.583-.459-1.125 0-.542.187-.885.459-1.127A1.582 1.582 0 0 1 12 4.498ZM6.4 5.9c-.61 0-1.229.2-1.707.625S3.9 7.61 3.9 8.4c0 .792.315 1.448.793 1.873A2.562 2.562 0 0 0 6.4 10.9c.612 0 1.23-.202 1.707-.627.479-.425.793-1.08.793-1.873 0-.791-.314-1.45-.793-1.875A2.56 2.56 0 0 0 6.4 5.9zm0 1c.39 0 .771.132 1.043.373.272.242.457.586.457 1.127 0 .542-.185.884-.457 1.125A1.583 1.583 0 0 1 6.4 9.9c-.388 0-.77-.133-1.043-.375C5.086 9.284 4.9 8.942 4.9 8.4c0-.541.186-.885.457-1.127A1.581 1.581 0 0 1 6.4 6.9Zm5.2 2.8c-.512 0-1.029.168-1.432.527-.403.358-.668.915-.668 1.574 0 .658.265 1.214.668 1.572.403.358.92.527 1.432.527.51 0 1.028-.169 1.431-.527s.668-.914.668-1.572c0-.659-.265-1.216-.668-1.574a2.147 2.147 0 0 0-1.431-.528Zm0 1c.288 0 .57.1.767.275.197.175.332.417.332.826 0 .408-.135.65-.332.826a1.167 1.167 0 0 1-.767.273c-.29 0-.571-.098-.768-.273-.197-.175-.332-.418-.332-.826 0-.409.135-.651.332-.826.197-.175.479-.276.768-.276z" style="color:#000;vector-effect:non-scaling-stroke;fill:currentColor;-inkscape-stroke:none"/></svg>