<svg xmlns="http://www.w3.org/2000/svg" fill="none" viewBox="0 0 18 18"><path d="M2.994 1.994v14.012h7.969c1.181.001 2.209-.338 2.933-1.037.725-.7 1.11-1.73 1.11-2.969V1.994Zm1.012 1.012h9.988v2.988H4.006Zm0 4H6.53v1.902H4.006Zm3.535 0h2.918v1.902H7.541Zm3.928 0h2.525v1.902H11.47ZM4.006 9.92H6.53v2.283H4.006Zm3.535 0h2.918v2.283H7.541Zm3.928 0h2.525V12c0 .08-.03.127-.033.203h-2.492Zm-7.463 3.295H6.53v1.78H4.006Zm3.535 0h2.918v1.78H7.541Zm3.928 0H13.8c-.137.414-.334.763-.606 1.025-.387.374-1.047.492-1.726.584z" style="color:#000;vector-effect:non-scaling-stroke;fill:currentColor;-inkscape-stroke:none"/></svg>