<svg xmlns="http://www.w3.org/2000/svg" fill="none" viewBox="0 0 18 18"><path d="M4.773 1.504c-.438 0-.877.166-1.209.498l-.566.564-.355.356c-1.271 1.271-1.377 3.09-.801 4.853.576 1.765 1.805 3.556 3.316 5.067 1.511 1.51 3.303 2.74 5.067 3.316 1.764.576 3.58.47 4.851-.8l.356-.354.568-.568a1.717 1.717 0 0 0 0-2.416l-2.309-2.311a1.707 1.707 0 0 0-2.406.002l-.926.926c-.202.202-.463.233-.896.09-.433-.144-.955-.49-1.389-.924-.434-.434-.78-.956-.924-1.389-.143-.433-.113-.692.09-.894l.002-.002.932-.948a1.704 1.704 0 0 0-.01-2.388l-2.182-2.18a1.703 1.703 0 0 0-1.209-.498Zm-.502 1.205h.002a.7.7 0 0 1 1.002 0l2.182 2.18a.688.688 0 0 1 .004.98l-.928.944c-.516.516-.546 1.274-.332 1.917.214.644.644 1.257 1.166 1.78.523.522 1.138.952 1.781 1.166.644.214 1.402.184 1.918-.332l.928-.928a.691.691 0 0 1 .99 0l2.309 2.309a.703.703 0 0 1 0 1.004l-.566.566-.358.353v.002c-.96.962-2.283 1.063-3.834.557-1.55-.506-3.249-1.651-4.67-3.072-1.42-1.421-2.565-3.119-3.072-4.67-.507-1.551-.405-2.874.557-3.836l.355-.356Z" style="color:#000;clip-rule:evenodd;vector-effect:non-scaling-stroke;fill:currentColor;fill-rule:evenodd;-inkscape-stroke:none"/></svg>