<svg xmlns="http://www.w3.org/2000/svg" fill="none" viewBox="0 0 18 18"><path d="M9 1.5C4.864 1.5 1.5 4.864 1.5 9s3.364 7.5 7.5 7.5 7.5-3.364 7.5-7.5S13.136 1.5 9 1.5Zm0 1c3.596 0 6.5 2.904 6.5 6.5s-2.904 6.5-6.5 6.5A6.492 6.492 0 0 1 2.5 9c0-3.596 2.904-6.5 6.5-6.5ZM6.123 5.416l-.707.707L8.293 9l-2.877 2.877.707.707L9 9.707l2.877 2.877.707-.707L9.707 9l2.877-2.877-.707-.707L9 8.293Z" style="color:#000;vector-effect:non-scaling-stroke;fill:currentColor;stroke-linejoin:round;-inkscape-stroke:none"/></svg>