<svg xmlns="http://www.w3.org/2000/svg" fill="none" viewBox="0 0 18 18"><path d="M8 5c-1.044 0-2.064.267-2.885.758-.74.443-1.28 1.112-1.5 1.918C2.412 8.01 1.496 9.023 1.5 10.3c0 .813.5 1.497 1.154 1.96A4.11 4.11 0 0 0 5 13h8c.99 0 1.859-.292 2.49-.824A2.823 2.823 0 0 0 16.5 10c0-1.73-1.473-3.25-3.5-3.25-.437 0-.908.106-1.34.225C10.938 5.819 9.618 5 8 5Zm0 1c1.44 0 2.605.758 3.047 1.71l.193.419.432-.16c.32-.118.924-.219 1.328-.219 1.541 0 2.5 1.08 2.5 2.25a1.77 1.77 0 0 1-.652 1.412c-.423.356-1.054.588-1.848.588H5c-.632 0-1.296-.22-1.77-.555-.473-.334-.73-.749-.73-1.144v-.002a1.808 1.808 0 0 1 1.568-1.803l.368-.05.058-.366C4.586 7.51 4.99 7 5.63 6.615 6.269 6.232 7.129 6 8 6Z" style="color:#000;clip-rule:evenodd;vector-effect:non-scaling-stroke;fill:currentColor;fill-rule:evenodd;-inkscape-stroke:none"/></svg>