<svg xmlns="http://www.w3.org/2000/svg" fill="none" viewBox="0 0 18 18"><path d="M5 2v2h1V3h9v8h-1v1h2V2ZM2 5v2h1V6h1V5Zm3 0v1h2V5Zm2.941 0v1h2.118V5ZM11 5v1h1v1h1V5ZM2 8v2h1V8Zm10 0v2h1V8Zm0 3v2h1v-2Zm-10 .41c0 1.602.639 2.357 1.139 2.877l.722-.693c-.5-.52-.861-.806-.861-2.184Zm10 2.53V15h-1v1h2v-2.06zm-7.313.267-.61.791c.685.53 1.503.864 2.364.967l.118-.994a3.794 3.794 0 0 1-1.872-.764ZM8 15v1h2v-1z" style="color:#000;vector-effect:non-scaling-stroke;fill:currentColor;-inkscape-stroke:none"/></svg>