<svg xmlns="http://www.w3.org/2000/svg" fill="none" viewBox="0 0 18 18"><path d="M3 2v2H2v1h1v3.5H2v1h1V13H2v1h1v2h8.016a5.367 5.367 0 0 0 3.37-1.223C15.332 13.997 16 12.852 16 11.5V2Zm1 1h11v8.5c0 1.027-.493 1.88-1.25 2.506a4.426 4.426 0 0 1-2.734.994H4v-1h1v-1H4V9.5h1v-1H4V5h1V4H4Z" style="color:#000;vector-effect:non-scaling-stroke;fill:currentColor;-inkscape-stroke:none"/><path d="M10 8.588c-1.103 0-1.912.463-2.354 1.2-.441.735-.558 1.678-.558 2.712v.412h5.824V12.5c0-1.034-.117-1.977-.558-2.713-.442-.736-1.251-1.2-2.354-1.2Zm0 .824c.897 0 1.338.287 1.646.8.253.422.321 1.134.362 1.876H7.992c.04-.742.109-1.454.362-1.875.308-.514.749-.8 1.646-.8Z" style="color:#000;clip-rule:evenodd;vector-effect:non-scaling-stroke;fill:currentColor;fill-rule:evenodd;-inkscape-stroke:none"/><path d="M9.994 4.215c-.466 0-.938.153-1.305.478-.366.326-.607.831-.607 1.434s.241 1.106.607 1.432c.367.325.839.478 1.305.478.467 0 .94-.153 1.307-.478.366-.326.605-.829.605-1.432s-.239-1.108-.605-1.434a1.961 1.961 0 0 0-1.307-.478Zm0 .822c.284 0 .562.097.758.272.196.174.33.421.33.818 0 .397-.134.642-.33.816a1.151 1.151 0 0 1-.758.272c-.283 0-.56-.097-.756-.272-.196-.174-.332-.419-.332-.816 0-.397.136-.644.332-.818.197-.175.473-.272.756-.272Z" style="color:#000;vector-effect:non-scaling-stroke;fill:currentColor;-inkscape-stroke:none"/></svg>