<svg xmlns="http://www.w3.org/2000/svg" fill="none" viewBox="0 0 18 18"><path d="M4.5 2c-.958 0-1.74.377-2.248.95C1.744 3.52 1.5 4.263 1.5 5c0 .736.244 1.479.752 2.05.508.573 1.29.95 2.248.95.695 0 1.25-.243 1.723-.57l1.82 1.82-1.865 1.865c-.514-.337-1.076-.615-1.678-.615-.736 0-1.479.244-2.05.752-.573.508-.95 1.29-.95 2.248 0 .958.377 1.74.95 2.248.571.508 1.314.752 2.05.752.736 0 1.479-.244 2.05-.752.573-.508.95-1.29.95-2.248 0-.695-.243-1.25-.57-1.723l1.82-1.82 6.396 6.397.708-.708L9.457 9.25l6.397-6.396-.708-.708L8.75 8.543 6.885 6.678C7.222 6.164 7.5 5.602 7.5 5c0-.736-.244-1.479-.752-2.05C6.24 2.376 5.458 2 4.5 2Zm0 1c.708 0 1.177.248 1.502.613.325.366.498.873.498 1.387s-.173 1.021-.498 1.387C5.677 6.752 5.208 7 4.5 7s-1.177-.248-1.502-.613C2.673 6.02 2.5 5.514 2.5 5s.173-1.021.498-1.387C3.323 3.248 3.792 3 4.5 3Zm0 8.5c.514 0 1.021.173 1.387.498.365.325.613.794.613 1.502s-.248 1.177-.613 1.502c-.366.325-.873.498-1.387.498s-1.021-.173-1.387-.498c-.365-.325-.613-.794-.613-1.502s.248-1.177.613-1.502c.366-.325.873-.498 1.387-.498Z" style="color:#000;vector-effect:non-scaling-stroke;fill:currentColor;-inkscape-stroke:none"/></svg>