<svg xmlns="http://www.w3.org/2000/svg" fill="none" viewBox="0 0 18 18"><path d="M4 2.5V4H1.996L2 4.504 2.092 16h9.435c1.264 0 2.38-.311 3.194-.992C15.535 14.327 16 13.28 16 12V4h-2V2.5h-1V4H5V2.5ZM3.004 5H15v2H3.02Zm.023 3H15v4c0 1.05-.34 1.754-.922 2.24-.582.487-1.452.76-2.55.76H3.083Zm3.916 1.143-.699.714L7.922 11.5 6.24 13.143l.7.714L8.636 12.2l1.693 1.658.7-.714L9.351 11.5l1.681-1.643-.699-.714L8.637 10.8Z" style="color:#000;vector-effect:non-scaling-stroke;fill:currentColor;-inkscape-stroke:none"/></svg>