<svg xmlns="http://www.w3.org/2000/svg" fill="none" viewBox="0 0 18 18"><path d="M7.727 1.563c-.578 0-1.16.187-1.618.583-.457.397-.767 1.009-.79 1.749v.08L1.5 4.004V8.5H2V9c.4 0 .782.106 1.045.322.263.217.455.542.455 1.178 0 .639-.188.963-.445 1.178C2.797 11.892 2.417 12 2 12v.5h-.5v4h4.818V16c0-.73.118-1.258.319-1.55.2-.294.467-.45 1.092-.45.617 0 .877.161 1.08.465.202.303.32.837.328 1.54l.006.495h4.892L14 13.498v-.66c.416-.067.848-.101 1.195-.39.493-.411.805-1.087.805-1.948 0-.864-.323-1.539-.818-1.947-.348-.287-.772-.321-1.182-.389V4h-3.863v-.098l-.002-.007c-.024-.74-.334-1.352-.791-1.749a2.462 2.462 0 0 0-1.617-.583Zm0 1c.357 0 .709.12.962.34.254.22.432.53.448 1.023V5H13v4h.5c.4 0 .782.106 1.045.322.263.217.455.542.455 1.178 0 .639-.188.963-.445 1.178-.258.214-.638.322-1.055.322H13v1.502l.023 1.998H10.02c-.05-.576-.088-1.154-.38-1.59C9.26 13.34 8.575 13 7.73 13c-.84 0-1.53.317-1.918.885-.297.434-.33 1.025-.375 1.615H2.5v-2.662c.416-.067.848-.101 1.195-.39.493-.411.805-1.087.805-1.948 0-.864-.323-1.539-.818-1.947-.348-.287-.772-.321-1.182-.389V4.996l3.818-.03v-1.04c.016-.493.192-.804.446-1.024.254-.22.605-.34.963-.34Z" style="color:#000;vector-effect:non-scaling-stroke;fill:currentColor;-inkscape-stroke:none"/></svg>