<svg xmlns="http://www.w3.org/2000/svg" fill="none" viewBox="0 0 18 18"><path d="M12.398 2.504c-.72 0-1.41.261-2.048.64v-.292l-.856.867-.002.002-.492.5-.492-.498a4.076 4.076 0 0 0-5.81 0 4.204 4.204 0 0 0 0 5.869l.003.004L9 15.696l6.297-6.1.006-.006a4.202 4.202 0 0 0 0-5.87 4.051 4.051 0 0 0-2.905-1.216zm0 .992c.794 0 1.587.308 2.19.924a3.188 3.188 0 0 1 0 4.47L9 14.306 3.412 8.893a3.19 3.19 0 0 1 0-4.471 3.06 3.06 0 0 1 4.381 0L9 5.645l.35-.356v.008l.855-.875.002-.002a3.058 3.058 0 0 1 2.191-.924Z" style="color:#000;clip-rule:evenodd;vector-effect:non-scaling-stroke;fill:currentColor;fill-rule:evenodd;-inkscape-stroke:none"/></svg>