<svg xmlns="http://www.w3.org/2000/svg" fill="none" viewBox="0 0 18 18"><path d="M2.088 2.088v9.824H9v-.824H2.912V2.912H5.33l2 2h5.758V6h.824V4.088H7.67l-2-2zm10.412 4.5c-.467 0-.938.153-1.305.478-.366.326-.607.831-.607 1.434s.241 1.108.607 1.434c.367.325.838.478 1.305.478.467 0 .938-.153 1.305-.478.366-.326.607-.831.607-1.434s-.241-1.108-.607-1.434a1.956 1.956 0 0 0-1.305-.478Zm0 .824c.283 0 .562.097.758.272.196.174.33.419.33.816 0 .397-.134.642-.33.816a1.151 1.151 0 0 1-.758.272c-.283 0-.562-.097-.758-.272-.196-.174-.33-.419-.33-.816 0-.397.134-.642.33-.816.196-.175.475-.272.758-.272Zm0 3.676c-.88 0-1.732.278-2.371.857-.639.58-1.041 1.458-1.041 2.555v1.412h6.824V14.5c0-1.097-.402-1.976-1.04-2.555-.64-.579-1.492-.857-2.372-.857Zm0 .824c.706 0 1.354.222 1.818.643.465.42.77 1.042.77 1.945v.588H9.912V14.5c0-.903.305-1.524.77-1.945.464-.421 1.112-.643 1.818-.643z" style="color:#000;vector-effect:non-scaling-stroke;fill:currentColor;-inkscape-stroke:none"/></svg>