<svg xmlns="http://www.w3.org/2000/svg" fill="none" viewBox="0 0 18 18"><path d="M2 2v1h3c.65 0 .908.024 1 .031L5.994 4H2v2c0 .5-.037.919.178 1.348.107.214.306.41.54.515.236.105.49.137.782.137h3.473L7 3.002V3c0-.125.017-.25-.049-.447-.065-.197-.292-.402-.48-.465C6.093 1.962 5.75 2 5 2Zm1 3h2.988l-.01 2H3.5c-.208 0-.329-.03-.375-.05-.046-.021-.035-.012-.053-.048C3.037 6.832 3 6.5 3 6Zm7.805 1.43L5.08 15.227l.84.546 1.68-2.582v.014h6.341l1.637 2.565.844-.54zm-.008 1.845 2.508 3.93H8.24Z" style="color:#000;vector-effect:non-scaling-stroke;fill:currentColor;-inkscape-stroke:none"/></svg>