<svg xmlns="http://www.w3.org/2000/svg" fill="none" viewBox="0 0 18 18"><path fill="currentColor" d="M3 17V1h5.406c.824 0 1.588.061 2.291.184.703.123 1.317.34 1.842.65.526.311.938.72 1.237 1.227.299.508.448 1.146.448 1.914-.0032.7316637-.195031 1.450138-.557 2.086-.178.311-.392.59-.643.835-.25.245-.537.425-.86.54v.098c.404.098.775.25 1.115.454.705842.4242994 1.23839 1.085112 1.503 1.865.145.417.218.896.218 1.435 0 .818-.158 1.522-.473 2.11-.311951.585288-.761104 1.086254-1.309 1.46-.593712.400958-1.254498.692232-1.951.86-.785233.193036-1.5914082.287762-2.4.282zm3-9h2.5c1.047 0 1.313-.19 1.788-.571.475-.381.712-.89.712-1.524 0-.69-.242-1.18-.727-1.47C9.79 4.145 9.508 4 8.5 4H6Zm6 3.905c0-.683-.294-1.171-.882-1.465C10.53 10.147 10.196 10 9 10H6v4h2.441C10.814 14 12 13.302 12 11.905Z" clip-rule="evenodd"/></svg>