<svg xmlns="http://www.w3.org/2000/svg" fill="none" viewBox="0 0 18 18"><path fill="currentColor" d="M4.5 4.5a1 1 0 1 1-2 0 1 1 0 0 1 2 0zm0 4a1 1 0 1 1-2 0 1 1 0 0 1 2 0zm0 4a1 1 0 1 1-2 0 1 1 0 0 1 2 0z"/><path d="M3.5 3c-.361 0-.729.119-1.02.377A1.5 1.5 0 0 0 2 4.5c0 .458.19.865.48 1.123.291.258.659.377 1.02.377s.729-.119 1.02-.377A1.5 1.5 0 0 0 5 4.5a1.5 1.5 0 0 0-.48-1.123A1.526 1.526 0 0 0 3.5 3Zm0 1c.139 0 .271.048.355.123.085.075.145.169.145.377s-.06.302-.145.377A.547.547 0 0 1 3.5 5a.547.547 0 0 1-.355-.123C3.06 4.802 3 4.708 3 4.5s.06-.302.145-.377A.547.547 0 0 1 3.5 4Zm3 0v1h9V4Zm-3 3c-.361 0-.729.119-1.02.377A1.5 1.5 0 0 0 2 8.5c0 .458.19.865.48 1.123.291.258.659.377 1.02.377s.729-.119 1.02-.377A1.5 1.5 0 0 0 5 8.5a1.5 1.5 0 0 0-.48-1.123A1.526 1.526 0 0 0 3.5 7Zm0 1c.139 0 .271.048.355.123.085.075.145.169.145.377s-.06.302-.145.377A.547.547 0 0 1 3.5 9a.547.547 0 0 1-.355-.123C3.06 8.802 3 8.708 3 8.5s.06-.302.145-.377A.547.547 0 0 1 3.5 8Zm3 0v1h9V8Zm-3 3c-.361 0-.729.119-1.02.377A1.5 1.5 0 0 0 2 12.5c0 .458.19.865.48 1.123.291.258.659.377 1.02.377s.729-.119 1.02-.377A1.5 1.5 0 0 0 5 12.5a1.5 1.5 0 0 0-.48-1.123A1.526 1.526 0 0 0 3.5 11Zm0 1c.139 0 .271.048.355.123.085.075.145.169.145.377s-.06.302-.145.377A.547.547 0 0 1 3.5 13a.547.547 0 0 1-.355-.123C3.06 12.802 3 12.708 3 12.5s.06-.302.145-.377A.547.547 0 0 1 3.5 12Zm3 0v1h9v-1z" style="color:#000;vector-effect:non-scaling-stroke;fill:currentColor;-inkscape-stroke:none"/></svg>