<svg xmlns="http://www.w3.org/2000/svg" fill="none" viewBox="0 0 24 18"><path fill="currentColor" fill-rule="evenodd" d="M0 17V1h2v6.986L9 8V1h2v16H9v-7H2v7H0zm19 0c-.603 0-1.155-.06-1.655-.181s-.956-.282-1.369-.484a6.043 6.043 0 0 1-1.107-.689 6.592 6.592 0 0 1-.869-.821l1-1.305c.46.483.996.91 1.607 1.28.611.371 1.37.556 2.274.556.92 0 1.675-.253 2.262-.76.587-.508.88-1.197.88-2.067 0-.451-.082-.866-.25-1.245a2.393 2.393 0 0 0-.82-.979c-.382-.274-.882-.483-1.5-.628-.62-.145-1.382-.218-2.286-.218V7.937c.81 0 1.488-.073 2.035-.218.548-.145.992-.346 1.334-.604a2.16 2.16 0 0 0 .726-.919 3.01 3.01 0 0 0 .214-1.136c0-.757-.234-1.353-.702-1.788-.468-.435-1.107-.653-1.917-.653-.635 0-1.218.145-1.75.435A6.376 6.376 0 0 0 15.62 4.19l-1.048-1.256a8.192 8.192 0 0 1 1.94-1.39C17.219 1.18 18.025 1 18.93 1c.666 0 1.277.089 1.833.266a4.335 4.335 0 0 1 1.44.761c.405.33.719.737.94 1.22.223.484.334 1.04.334 1.668 0 .935-.254 1.7-.762 2.296-.508.597-1.174 1.056-2 1.378v.097c.46.113.89.278 1.286.495.397.218.746.492 1.048.822a3.6 3.6 0 0 1 .702 1.148c.167.435.25.918.25 1.45 0 .677-.131 1.29-.393 1.837a4.086 4.086 0 0 1-1.071 1.39 4.82 4.82 0 0 1-1.584.87A6.128 6.128 0 0 1 19 17z" clip-rule="evenodd"/></svg>