<svg xmlns="http://www.w3.org/2000/svg" fill="none" viewBox="0 0 18 18"><path d="M2 3v1h2v4h1V3Zm5 1v1h9V4Zm0 4v1h9V8ZM4.236 9.549c-.679-.155-1.486.058-2.097.697l.722.691c.389-.406.832-.487 1.153-.414.32.073.486.24.486.524 0 .556-.269.918-.693 1.414-.425.496-.994 1.081-1.284 1.976l-.21.655H5.5v-1H3.914c.213-.323.384-.665.654-.98.45-.527.932-1.166.932-2.065 0-.762-.585-1.344-1.264-1.498ZM7 12v1h9v-1z" style="color:#000;vector-effect:non-scaling-stroke;fill:currentColor;-inkscape-stroke:none"/></svg>