<svg xmlns="http://www.w3.org/2000/svg" fill="none" viewBox="0 0 18 18"><path d="M5.758 1.5a2.975 2.975 0 0 0-2.969 2.965v.002a2.974 2.974 0 0 0 2.97 2.965A2.975 2.975 0 0 0 8.73 4.467v-.002A2.976 2.976 0 0 0 5.76 1.5Zm0 1h.002a1.961 1.961 0 0 1 1.97 1.965 1.962 1.962 0 0 1-1.97 1.967 1.961 1.961 0 0 1-1.97-1.965v-.002A1.96 1.96 0 0 1 5.757 2.5Zm6.412 2.256A2.975 2.975 0 0 0 9.2 7.72v.002a2.975 2.975 0 0 0 2.97 2.964 2.975 2.975 0 0 0 2.97-2.964V7.72a2.975 2.975 0 0 0-2.97-2.965Zm0 1c1.093-.001 1.97.874 1.97 1.967a1.962 1.962 0 0 1-1.97 1.965A1.962 1.962 0 0 1 10.2 7.72a1.962 1.962 0 0 1 1.97-1.965ZM4.94 8.924C3.06 8.924 1.5 10.397 1.5 12.23v1.803h6.719c-.046.221-.131.428-.131.662V16.5H16.5v-1.803c0-1.66-1.3-2.967-2.941-3.209v-.1H11.404c-.54 0-1.024.15-1.467.368a3.367 3.367 0 0 0-3.341-2.832Zm0 1h1.655c1.366 0 2.443 1.04 2.443 2.308l.002.133c-.188.19-.306.437-.443.668H2.5v-.803c0-1.266 1.075-2.306 2.441-2.306zm6.463 2.465h1.155v.002h.5c1.367 0 2.441 1.04 2.441 2.306v.803H9.088v-.805c0-1.292.95-2.306 2.316-2.306z" style="color:#000;vector-effect:non-scaling-stroke;fill:currentColor;-inkscape-stroke:none"/></svg>