<svg xmlns="http://www.w3.org/2000/svg" fill="none" viewBox="0 0 18 18"><path d="M9 1.543c-.618 0-1.242.2-1.729.625-.486.424-.813 1.08-.832 1.875-.025.833.289 1.527.782 1.977.005.005.014.002.02.007l-3.079 5.389c-.037-.001-.066-.037-.103-.037-.627 0-1.259.206-1.748.64-.49.435-.813 1.109-.813 1.92 0 .812.321 1.483.81 1.918.49.436 1.123.643 1.749.643.626 0 1.26-.206 1.75-.64.256-.228.281-.663.423-1.006h5.538c.142.343.167.776.423 1.003.49.436 1.122.643 1.748.643.627 0 1.26-.206 1.748-.64.49-.435.813-1.109.813-1.92 0-.812-.321-1.483-.81-1.919a2.624 2.624 0 0 0-1.749-.642c-.037 0-.066.036-.103.037L10.76 6.027c.004-.004.011-.002.015-.006.365-.331.474-.905.579-1.462h.216l-.011-.512v-.002h-.002c-.018-.794-.343-1.45-.829-1.875A2.62 2.62 0 0 0 9 1.543Zm0 1c.397 0 .788.134 1.07.38.282.248.477.598.489 1.145v.006c.017.582-.173.949-.457 1.207-.285.259-.69.4-1.104.4-.414 0-.82-.143-1.103-.402-.285-.259-.474-.625-.456-1.207v-.006c.013-.547.208-.898.49-1.144.283-.247.674-.38 1.071-.379Zm-.81 3.838c.278.09.518.3.808.3.291 0 .532-.21.81-.3l3.079 5.385c-.23.102-.501.08-.696.254-.467.415-.745 1.07-.773 1.834H6.58c-.027-.763-.306-1.417-.773-1.833-.195-.172-.464-.153-.694-.255Zm-4.131 5.998c.403 0 .8.137 1.084.389.283.251.474.61.474 1.171 0 .562-.191.92-.474 1.172-.284.252-.68.39-1.084.389-.404 0-.801-.137-1.084-.389-.283-.251-.477-.61-.477-1.172 0-.561.193-.92.477-1.171.283-.252.68-.39 1.084-.39Zm9.88 0c.404 0 .801.137 1.084.389.284.251.477.61.477 1.171 0 .562-.193.92-.477 1.172-.283.252-.68.39-1.084.389-.403 0-.8-.137-1.084-.389-.283-.251-.474-.61-.474-1.172 0-.561.191-.92.474-1.171.284-.252.68-.39 1.084-.39z" style="color:#000;vector-effect:non-scaling-stroke;fill:currentColor;-inkscape-stroke:none"/></svg>