<svg xmlns="http://www.w3.org/2000/svg" fill="none" viewBox="0 0 18 18"><path d="M9 1.986c-2.262 0-4.248 1.019-5.633 2.551V2H2.291v3.602h.537v.537H6.53V5.062H4.4c1.174-1.181 2.757-2 4.601-2 3.586 0 6.46 2.781 6.46 6.2 0 3.418-2.874 6.199-6.46 6.199s-6.46-2.78-6.46-6.2H1.46c0 4.024 3.394 7.278 7.54 7.278s7.54-3.254 7.54-7.277c0-4.024-3.394-7.276-7.54-7.276ZM8.06 6l-.011 6.012 3.627-1.51-.414-.994-2.133.888.01-4.392Z" style="color:#000;vector-effect:non-scaling-stroke;fill:currentColor;-inkscape-stroke:none"/></svg>