<svg xmlns="http://www.w3.org/2000/svg" fill="none" viewBox="0 0 18 18"><path d="M2 3v12h9.5c1.296 0 2.43-.363 3.24-1.104.81-.74 1.26-1.842 1.26-3.17V3Zm1 1h12v4.186l-6.453 3.71-2.608-2.085L3 13.168Zm3 .736c-1.141 0-2.057.966-2.057 2.12 0 1.153.916 2.119 2.057 2.119s2.057-.966 2.057-2.12c0-1.153-.916-2.119-2.057-2.119Zm0 1c.579 0 1.057.485 1.057 1.12 0 .634-.478 1.119-1.057 1.119s-1.057-.485-1.057-1.12c0-.634.478-1.119 1.057-1.119Zm9 3.604v1.387c0 1.109-.347 1.894-.936 2.431-.588.537-1.454.842-2.564.842H3.604l2.457-2.81 2.392 1.914z" style="color:#000;vector-effect:non-scaling-stroke;fill:currentColor;-inkscape-stroke:none"/></svg>