<svg xmlns="http://www.w3.org/2000/svg" fill="none" viewBox="0 0 18 18"><path d="M14.133 2.16 11.512 5H10v1h.588L8.28 8.5H6v1h1.357l-2.045 2.215C4.032 11.373 3 10.39 3 9c0-1.659 1.341-3 3-3h2V5H6a4.01 4.01 0 0 0-4 4 4.01 4.01 0 0 0 2.43 3.672L2.133 15.16l.734.68 2.703-2.928c.148.017.278.088.43.088h2v-1H6.412L8.72 9.5H12v-1H9.643L11.949 6H12c1.659 0 3 1.341 3 3s-1.341 3-3 3h-2v1h2c2.201 0 4-1.799 4-4 0-1.94-1.426-3.492-3.266-3.85l2.133-2.31z" style="color:#000;vector-effect:non-scaling-stroke;fill:currentColor;-inkscape-stroke:none"/></svg>