<svg xmlns="http://www.w3.org/2000/svg" fill="none" viewBox="0 0 18 18"><path d="M1.5 3.5v8.826h1.26c.039 1.183.953 2.174 2.123 2.174 1.17 0 2.083-.99 2.12-2.174h3.169c.039 1.183.953 2.174 2.123 2.174 1.17 0 2.083-.99 2.121-2.174H16.5V6.98h-4.117V3.5Zm1 1h8.883v5.814a2.105 2.105 0 0 0-.963 1.012H6.725c-.05-.106-.116-.197-.182-.293-.093-.137-.129-.282-.248-.394-.381-.364-.852-.618-1.412-.618-.56 0-1.035.254-1.416.618-.117.11-.151.254-.242.388-.068.098-.134.19-.186.3H2.5Zm9.883 3.479H15.5v3.347h-1.363c-.05-.106-.116-.197-.182-.293-.093-.137-.129-.282-.248-.394a2.032 2.032 0 0 0-1.324-.586zm-7.5 3.042c.289 0 .542.136.746.329.061.059.086.15.135.222.133.202.265.415.265.69 0 .704-.522 1.238-1.146 1.238-.625 0-1.149-.535-1.149-1.24 0-.271.131-.48.262-.68.05-.076.077-.17.14-.23.204-.192.459-.329.747-.329zm7.412 0c.288 0 .54.137.744.329.064.06.09.154.14.23.132.2.262.41.262.682 0 .704-.521 1.238-1.146 1.238-.625 0-1.149-.535-1.149-1.24 0-.185.114-.309.178-.463.118-.27.307-.472.553-.592.14-.065.256-.184.418-.184z" style="color:#000;vector-effect:non-scaling-stroke;fill:currentColor;-inkscape-stroke:none"/></svg>