<svg xmlns="http://www.w3.org/2000/svg" fill="none" viewBox="0 0 18 18"><path d="M9 2.5c-1.254 0-2.033.554-2.434 1.25l.868.5C7.71 3.768 7.988 3.5 9 3.5c1.117 0 1.486.353 1.732.895.188.413.187 1.025.204 1.605H3v10h9c1.24 0 2.114-.593 2.53-1.455.414-.862.47-1.918.47-3.045V6h-3.07c-.007-.651.016-1.352-.287-2.02-.38-.833-1.26-1.48-2.643-1.48ZM4 7h10v4.5c0 1.083-.089 2.025-.371 2.611-.282.586-.659.889-1.629.889H4Zm5 1.5c-.625 0-1.156.252-1.498.637A2.044 2.044 0 0 0 7 10.5c0 .486.16.979.502 1.363.228.256.63.32.998.424V14h1v-1.713c.368-.103.77-.168.998-.424.342-.384.502-.877.502-1.363s-.16-.979-.502-1.363C10.156 8.752 9.625 8.5 9 8.5Zm0 1c.375 0 .594.123.752.3.158.179.248.436.248.7 0 .264-.09.521-.248.7-.158.177-.377.3-.752.3s-.594-.123-.752-.3A1.064 1.064 0 0 1 8 10.5c0-.264.09-.521.248-.7.158-.177.377-.3.752-.3Z" style="color:#000;vector-effect:non-scaling-stroke;fill:currentColor;-inkscape-stroke:none"/></svg>