<svg xmlns="http://www.w3.org/2000/svg" fill="none" viewBox="0 0 18 18"><path d="M8.5 2v2.402c-3.247.269-5.833 2.918-5.832 6.233V12.3H2v1h3.797C5.852 15.06 7.254 16.5 9 16.5c1.746 0 3.148-1.438 3.203-3.2H16v-1h-.668v-1.665c0-3.315-2.585-5.964-5.832-6.233V2ZM9 5.3a5.325 5.325 0 0 1 5.332 5.335V12.3H3.668v-1.666A5.325 5.325 0 0 1 9 5.3Zm-2.182 8h4.364c-.06 1.228-.994 2.2-2.182 2.2s-2.122-.972-2.182-2.2Z" style="color:#000;vector-effect:non-scaling-stroke;fill:currentColor;-inkscape-stroke:none"/></svg>