<svg xmlns="http://www.w3.org/2000/svg" fill="none" viewBox="0 0 18 18"><path d="M8.912 2.5V4H9v.1c.647 0 1.146.494 1.146 1.1 0 .604-.5 1.1-1.146 1.1-.647 0-1.146-.496-1.146-1.1h-1c0 .572.243 1.087.625 1.466L2.545 9.984l.01.016H2v6h14v-6h-.555l.01-.016-4.933-3.318c.38-.379.625-.894.625-1.467 0-.811-.548-1.378-1.235-1.728V2.5ZM8.33 7.027c.232.085.41.274.67.274.26 0 .438-.19.67-.274l-.125.188L13.688 10H4.313l4.141-2.785ZM3 11h12v4H3Z" style="color:#000;vector-effect:non-scaling-stroke;fill:currentColor;-inkscape-stroke:none"/></svg>