<svg xmlns="http://www.w3.org/2000/svg" fill="none" viewBox="0 0 18 18"><path d="M9 2c-.861 0-1.729.285-2.395.877C5.94 3.469 5.5 4.375 5.5 5.5c0 1.125.44 2.031 1.105 2.623C7.271 8.715 8.14 9 9 9s1.729-.285 2.395-.877C12.06 7.531 12.5 6.625 12.5 5.5c0-1.125-.44-2.031-1.105-2.623C10.729 2.285 9.86 2 9 2Zm0 1c.639 0 1.271.215 1.73.623.46.408.77 1.002.77 1.877s-.31 1.469-.77 1.877C10.271 7.785 9.64 8 9 8s-1.271-.215-1.73-.623C6.81 6.969 6.5 6.375 6.5 5.5s.31-1.469.77-1.877C7.729 3.215 8.36 3 9 3Zm0 7c-1.997 0-3.383.608-4.25 1.459h-.002c-.87.858-1.248 1.983-1.248 3.041V16h11v-1.5c0-1.058-.378-2.183-1.248-3.041h-.002C12.383 10.608 10.997 10 9 10Zm0 1c1.799 0 2.888.523 3.549 1.172.661.653.951 1.508.951 2.328v.5h-9v-.5c0-.82.29-1.676.951-2.328C6.112 11.523 7.201 11 9 11Z" style="color:#000;vector-effect:non-scaling-stroke;fill:currentColor;-inkscape-stroke:none"/></svg>