<svg xmlns="http://www.w3.org/2000/svg" fill="none" viewBox="0 0 18 18"><path d="M7.146 1.5c-.883 0-1.773.292-2.455.898-.682.607-1.132 1.536-1.132 2.69s.45 2.083 1.132 2.69c.682.606 1.572.898 2.455.898.884 0 1.773-.292 2.456-.899.682-.606 1.132-1.535 1.132-2.69 0-1.153-.45-2.082-1.132-2.689C8.919 1.792 8.03 1.5 7.146 1.5Zm0 1c.661 0 1.316.223 1.792.646.475.424.796 1.038.796 1.942 0 .904-.32 1.52-.796 1.943-.476.423-1.13.645-1.792.645-.66 0-1.315-.222-1.79-.645-.476-.423-.797-1.039-.797-1.943 0-.904.32-1.518.796-1.942.476-.423 1.13-.646 1.791-.646Zm4.944 6.412c-.78 0-1.567.257-2.172.795-.171.152-.28.376-.414.572-.635-.305-1.306-.545-2.014-.545h-1.1c-2.707 0-4.89 2.31-4.89 5.114v1.65h10.883v-1.342a3.222 3.222 0 0 0 1.513-.552l1.75 1.75.708-.708-1.71-1.709c.357-.503.622-1.1.622-1.85 0-1.016-.4-1.842-1.004-2.38-.605-.538-1.392-.795-2.172-.795Zm0 1c.558 0 1.107.189 1.506.543.398.354.67.866.67 1.633s-.272 1.278-.67 1.633c-.399.354-.948.543-1.506.543s-1.11-.189-1.508-.543c-.399-.355-.67-.866-.67-1.633s.271-1.279.67-1.633c.399-.354.95-.543 1.508-.543zm-5.7.822h1.1c.565 0 1.102.19 1.608.436-.083.294-.186.577-.186.918 0 1.017.401 1.843 1.006 2.38.408.363.949.423 1.465.538v.492H2.5v-.65c0-2.29 1.75-4.114 3.89-4.114z" style="color:#000;vector-effect:non-scaling-stroke;fill:currentColor;-inkscape-stroke:none"/></svg>