<svg xmlns="http://www.w3.org/2000/svg" fill="none" viewBox="0 0 18 18"><path d="M1.889 2v4.705h1V3H11.5c1.943 0 3.611 1.552 3.611 3.434v.271h1v-.271C16.111 3.969 13.975 2 11.5 2Zm0 6.117v5.471h1v-2.176h1.607c.779 0 1.504-.598 1.504-1.418v-.4a1.502 1.502 0 0 0-1.508-1.477Zm4.668 0v5.588h2.5c.8 0 1.5-.617 1.5-1.418V9.535c0-.8-.7-1.418-1.5-1.418zm4.666 0v5.47h1v-2.175h2.22v-1h-2.22V9.117h3v-1zm-8.334 1h1.613A.486.486 0 0 1 5 9.605v.39c0 .265-.178.417-.504.417H2.89Zm4.668 0h1.5c.306 0 .5.205.5.418v2.752c0 .215-.194.418-.5.418h-1.5zM2 15v1h14v-1z" style="color:#000;vector-effect:non-scaling-stroke;fill:currentColor;-inkscape-stroke:none"/></svg>