<svg xmlns="http://www.w3.org/2000/svg" fill="none" viewBox="0 0 18 18"><path d="M8.996 1.508c-.873 0-1.746.406-2.25 1.217l-.853 1.373.834.517.853-1.37c.621-1 2.21-1.001 2.83-.003l.002.002 2.174 3.49-1.707-.427-.238.953 3.35.836.906-3.139-.944-.273-.47 1.628-2.239-3.587c-.504-.811-1.375-1.217-2.248-1.217ZM4.98 6.043l-2.891.72.238.954 1.719-.428-2.174 3.504a2.338 2.338 0 0 0-.002 2.482c.445.716 1.27 1.215 2.248 1.215h1.707v-.98H4.117c-.65 0-1.146-.321-1.414-.752a1.31 1.31 0 0 1 .002-1.445v-.003L4.934 7.72 5.4 9.342l.944-.274-.774-2.683-.472.135Zm10.298 3.373-.834.518.854 1.373c.31.499.268 1.014 0 1.445-.268.43-.766.752-1.416.752l-4.17.004 1.238-1.149-.668-.718-2.013 1.869h-.02v.02L7.74 14l.508.47v.02h.02l2.013 1.87.668-.72-1.24-1.152 4.172-.004c.979 0 1.805-.497 2.25-1.213a2.344 2.344 0 0 0 0-2.484z" style="color:#000;vector-effect:non-scaling-stroke;fill:currentColor;-inkscape-stroke:none"/></svg>