<svg xmlns="http://www.w3.org/2000/svg" fill="none" viewBox="0 0 18 18"><path d="M9.783 1.965a7.307 7.307 0 0 0-2.748.28c-3.847 1.12-5.445 4.601-5 7.747.446 3.146 2.949 6.044 6.965 6.047v-1.078c-3.508-.002-5.515-2.423-5.896-5.12-.382-2.696.876-5.581 4.234-6.56 3.358-.978 5.969.779 7.096 3.258.993 2.186.69 4.823-1.395 6.72V11h-1.078v4.04H16v-1.08h-2.164c2.326-2.21 2.725-5.347 1.58-7.866-.986-2.17-3.043-3.882-5.633-4.13Z" style="color:#000;vector-effect:non-scaling-stroke;fill:currentColor;-inkscape-stroke:none"/></svg>