<svg xmlns="http://www.w3.org/2000/svg" fill="none" viewBox="0 0 18 18"><path d="M5.205 2v1.086c-1.674.122-3.08 1.3-3.08 2.889 0 1.206.89 1.98 1.672 2.4.711.382 1.287.49 1.408.516v5.025C3.68 13.796 2.5 12.76 2.5 11.475h-1c0 1.9 1.677 3.368 3.705 3.482V16h1v-1.137c1.775-.324 3.178-1.659 3.178-3.388 0-1.47-1.047-2.393-1.99-2.883-.6-.311-.835-.319-1.188-.403V4.275c.908.302 1.647.922 1.647 1.725v.5h1V6c0-1.425-1.218-2.39-2.647-2.723V2ZM12.5 2v2H10v1h2.5v2h1V5H16V4h-2.5V2ZM5.205 4.084v3.754c-.215-.054-.473-.096-.935-.344-.627-.336-1.145-.8-1.145-1.52 0-.983.902-1.773 2.08-1.89Zm1 5.148c.286.084.367.06.727.247.776.403 1.45.99 1.45 1.996 0 1.115-.956 1.931-2.177 2.252z" style="color:#000;vector-effect:non-scaling-stroke;fill:currentColor;-inkscape-stroke:none"/></svg>