<svg xmlns="http://www.w3.org/2000/svg" fill="none" viewBox="0 0 18 18"><path d="M8.5 2c-1.361 0-2.729.452-3.77 1.377C3.69 4.302 3 5.708 3 7.5 3 10.532 5.468 13 8.5 13c1.074 0 2.02-.391 2.867-.926l3.78 3.78.707-.708-3.643-3.642C13.296 10.498 14 9.092 14 7.5c0-1.792-.69-3.198-1.73-4.123C11.229 2.452 9.86 2 8.5 2Zm0 1c1.139 0 2.271.381 3.105 1.123C12.44 4.865 13 5.958 13 7.5c0 2.491-2.009 4.5-4.5 4.5A4.492 4.492 0 0 1 4 7.5c0-1.542.56-2.635 1.395-3.377C6.229 3.381 7.36 3 8.5 3Z" style="color:#000;vector-effect:non-scaling-stroke;fill:currentColor;-inkscape-stroke:none"/></svg>