<svg xmlns="http://www.w3.org/2000/svg" fill="none" viewBox="0 0 18 18"><path d="M5.213 2.5 1.422 9l3.79 6.5h7.575L16.578 9l-3.79-6.5H12.5Zm.574 1h6.426L15.422 9l-3.21 5.5H5.788L2.578 9Z" style="color:#000;clip-rule:evenodd;vector-effect:non-scaling-stroke;fill:currentColor;fill-rule:evenodd;-inkscape-stroke:none"/><path d="M8.998 5.81a3.19 3.19 0 0 0-3.174 3.188v.004a3.19 3.19 0 0 0 3.174 3.187h.004a3.19 3.19 0 0 0 0-6.378H9Zm.002 1a2.176 2.176 0 0 1 2.178 2.188v.004a2.176 2.176 0 1 1-4.354 0v-.004A2.175 2.175 0 0 1 9 6.811Z" style="color:#000;clip-rule:evenodd;vector-effect:non-scaling-stroke;fill:currentColor;fill-rule:evenodd;-inkscape-stroke:none"/></svg>