<svg xmlns="http://www.w3.org/2000/svg" fill="none" viewBox="0 0 18 18"><path d="M13.97 1.5c-1.135 0-2.029.986-2.029 2.146 0 .082.076.133.084.213L5.588 7.822c-.367-.533-.878-.937-1.559-.937C2.894 6.885 2 7.87 2 9.03c0 1.16.894 2.149 2.03 2.149.7 0 1.214-.431 1.577-.99l6.418 3.95c-.008.08-.084.132-.084.214 0 1.16.894 2.146 2.03 2.146 1.135 0 2.029-.986 2.029-2.146s-.894-2.149-2.03-2.149c-.699 0-1.214.43-1.577.988L5.977 9.244c.008-.08.082-.131.082-.213 0-.1-.089-.164-.102-.261l6.436-3.963c.363.558.878.988 1.578.988 1.135 0 2.029-.988 2.029-2.149 0-1.16-.894-2.146-2.03-2.146Zm0 1c.553 0 1.03.489 1.03 1.146 0 .66-.475 1.149-1.03 1.149-.552 0-1.029-.49-1.029-1.149s.475-1.146 1.03-1.146ZM4.03 7.885c.552 0 1.029.488 1.029 1.146 0 .658-.476 1.149-1.03 1.149C3.477 10.18 3 9.69 3 9.03s.475-1.146 1.03-1.146Zm9.94 5.32c.553 0 1.03.49 1.03 1.149s-.475 1.146-1.03 1.146c-.552 0-1.029-.489-1.029-1.146 0-.66.475-1.149 1.03-1.149z" style="color:#000;vector-effect:non-scaling-stroke;fill:currentColor;-inkscape-stroke:none"/></svg>