<svg xmlns="http://www.w3.org/2000/svg" fill="none" viewBox="0 0 18 18"><path d="M9 1.994 2 3v2.549c.006 2.108.638 4.178 1.828 6s2.894 3.333 4.942 4.394l.23.12.23-.12c2.05-1.06 3.755-2.57 4.946-4.392 1.19-1.822 1.82-3.895 1.824-6.004V3Zm0 1.012 6 .861v1.68c-.003 1.91-.573 3.79-1.662 5.457-1.041 1.593-2.546 2.918-4.338 3.894-1.79-.977-3.294-2.303-4.334-3.896C3.576 9.335 3.006 7.456 3 5.547v-1.68ZM8.5 5.5v2h-2v1h2v2h1v-2h2v-1h-2v-2z" style="color:#000;vector-effect:non-scaling-stroke;fill:currentColor;-inkscape-stroke:none"/></svg>