<svg xmlns="http://www.w3.org/2000/svg" fill="none" viewBox="0 0 18 18"><path d="m2.9 2.02-.246.738 2.117.705 1.34 7.078v2.348H14v-.778H6.889V10.89h7.107l.963-5.778h-9.07v.069L5.45 2.87zm3.123 3.869h8.018l-.703 4.222H6.822Zm7.643 7.75c-.287 0-.578.094-.807.302a1.171 1.171 0 0 0-.355.899c.003.352.145.668.369.867.226.201.514.293.795.293.28 0 .567-.092.793-.293a1.17 1.17 0 0 0 .367-.863l.004.004-.002-.006c0-.004.004-.006.004-.01v-.389h-.162c-.062-.175-.07-.386-.197-.502a1.191 1.191 0 0 0-.809-.302zm-7 .027c-.28 0-.567.092-.793.293a1.167 1.167 0 0 0-.375.873c0 .357.149.674.375.875.226.201.512.293.793.293s.567-.092.793-.293a1.17 1.17 0 0 0 .373-.875c0-.357-.147-.672-.373-.873a1.187 1.187 0 0 0-.793-.293Zm7 .75a.43.43 0 0 1 .283.1c.066.06.112.132.106.302v.022c-.003.153-.048.228-.112.285a.423.423 0 0 1-.275.098.429.429 0 0 1-.277-.098c-.066-.058-.114-.13-.114-.293v-.014c-.006-.17.04-.243.106-.302a.43.43 0 0 1 .283-.1zm-7 .027c.108 0 .212.04.277.098.066.058.112.129.112.291 0 .162-.046.235-.112.293a.429.429 0 0 1-.277.098.429.429 0 0 1-.277-.098c-.066-.058-.112-.13-.112-.293 0-.162.046-.233.112-.291a.429.429 0 0 1 .277-.098z" style="color:#000;vector-effect:non-scaling-stroke;fill:currentColor;-inkscape-stroke:none"/></svg>