<svg xmlns="http://www.w3.org/2000/svg" fill="none" viewBox="0 0 18 18"><path d="m9 3.654-.465 1.16L7.662 7H3.744l2.983 2.822-.586 3.801L9 11.512l2.86 2.111-.587-3.8L14.256 7h-3.918Zm0 2.692L9.662 8h2.082l-1.539 1.457.295 1.92-1.5-1.11-1.5 1.11.295-1.92L6.255 8h2.083z" style="color:#000;clip-rule:evenodd;vector-effect:non-scaling-stroke;fill:currentColor;fill-rule:evenodd;stroke-miterlimit:10;-inkscape-stroke:none"/><path d="M9 2C5.14 2 2 5.14 2 9s3.14 7 7 7 7-3.14 7-7-3.14-7-7-7Zm0 1c3.32 0 6 2.68 6 6s-2.68 6-6 6-6-2.68-6-6 2.68-6 6-6Z" style="color:#000;vector-effect:non-scaling-stroke;fill:currentColor;stroke-miterlimit:10;-inkscape-stroke:none"/></svg>