<svg xmlns="http://www.w3.org/2000/svg" fill="none" viewBox="0 0 18 18"><path d="M6.307 1.5a4.792 4.792 0 0 0-1.975.432l-.654.298 3 3L5.23 6.678l-3-3-.298.654A4.792 4.792 0 0 0 1.5 6.307v.002a4.816 4.816 0 0 0 4.809 4.806c.55-.001 1.08-.164 1.595-.35l5.942 5.942 2.861-2.861-.353-.354-5.588-5.588c.185-.516.348-1.045.35-1.595A4.816 4.816 0 0 0 6.308 1.5Zm.002 1a3.8 3.8 0 0 1 3.806 3.809 3.788 3.788 0 0 1-.342 1.558l-.142.317 5.662 5.662-1.447 1.447-5.662-5.662-.317.142c-.49.223-1.02.34-1.558.342A3.8 3.8 0 0 1 2.5 6.31c0-.27.113-.518.17-.78l2.56 2.563L8.092 5.23 5.529 2.67c.262-.057.51-.17.78-.17Z" style="color:#000;clip-rule:evenodd;vector-effect:non-scaling-stroke;fill:currentColor;fill-rule:evenodd;-inkscape-stroke:none"/></svg>