<svg xmlns="http://www.w3.org/2000/svg" fill="none" viewBox="0 0 18 18"><path d="m15.133 1.66-3.104 3.342c-.893-.582-1.901-1.031-3.105-1.031-2.076 0-3.703 1.238-4.795 2.425a11.795 11.795 0 0 0-1.693 2.377l-.116.23.12.23s.62 1.188 1.732 2.374c.267.285.66.522.986.795L2.133 15.66l.734.68 3.07-3.307c.884.565 1.88.996 3.063.996 2.075 0 3.7-1.238 4.793-2.425 1.092-1.188 1.693-2.377 1.693-2.377l.37-.727h-.569c-.123-.224-.55-1.055-1.535-2.107-.255-.272-.632-.498-.941-.76l3.056-3.293Zm-6.21 3.31c.9 0 1.705.316 2.432.759l-.855.921c-.467-.353-.958-.703-1.576-.703-1.596 0-2.871 1.398-2.871 3.053 0 .662.323 1.21.67 1.717l-.891.959c-.313-.255-.67-.474-.932-.752C3.997 9.96 3.6 9.192 3.492 8.998c.103-.193.487-.96 1.373-1.924.992-1.077 2.386-2.103 4.059-2.103Zm3.212 1.39c.295.244.638.45.886.716.904.965 1.305 1.735 1.41 1.928-.103.194-.487.96-1.372 1.922-.992 1.077-2.387 2.103-4.059 2.103-.879 0-1.673-.296-2.389-.722l.844-.909c.448.311.893.655 1.469.655 1.41 0 2.425-1.157 2.676-2.553h.195V9c0-.617-.32-1.115-.625-1.602zm-3.211.587c.35 0 .628.224.914.416l-2.416 2.6c-.163-.303-.37-.584-.37-.963 0-1.145.867-2.053 1.872-2.053zm1.545 1.205c.129.277.326.514.326.848 0 1.145-.867 2.053-1.871 2.053-.309 0-.545-.215-.807-.367z" style="color:#000;vector-effect:non-scaling-stroke;fill:currentColor;-inkscape-stroke:none"/></svg>