<svg xmlns="http://www.w3.org/2000/svg" fill="none" viewBox="0 0 18 18"><path d="M8.963 4.5c-4.059 0-6.399 4.254-6.399 4.254l-.14.25.144.248s2.41 4.248 6.47 4.248c4.058 0 6.398-4.254 6.398-4.254l.14-.25-.144-.248S13.022 4.5 8.962 4.5zm0 1c3.117 0 5.125 3.071 5.4 3.504-.268.435-2.21 3.496-5.326 3.496-3.117 0-5.125-3.071-5.4-3.504.268-.435 2.21-3.496 5.326-3.496Z" style="color:#000;vector-effect:non-scaling-stroke;fill:currentColor;-inkscape-stroke:none"/><path d="M9.035 6.244C7.49 6.245 6.198 7.48 6.197 8.998a2.753 2.753 0 0 0 2.768 2.758c1.546-.001 2.837-1.235 2.838-2.754a2.753 2.753 0 0 0-2.768-2.758zm.002 1h.006a1.738 1.738 0 0 1 1.76 1.754V9c0 .95-.822 1.756-1.84 1.756h-.006a1.738 1.738 0 0 1-1.76-1.754V9c0-.95.822-1.756 1.84-1.756z" style="color:#000;vector-effect:non-scaling-stroke;fill:currentColor;-inkscape-stroke:none"/></svg>