<svg xmlns="http://www.w3.org/2000/svg" fill="none" viewBox="0 0 18 18"><path d="M7.766 1.5a6.272 6.272 0 0 0-6.342 6.264c0 3.484 2.86 6.309 6.344 6.265 1.568 0 2.91-.64 3.953-1.601l3.925 3.926.708-.708-3.97-3.968c.838-1.085 1.393-2.415 1.393-3.912 0-3.428-2.557-6.265-6.01-6.266zm-.008 1h.008c2.912 0 5.011 2.324 5.011 5.266 0 2.94-2.099 5.263-5.011 5.263h-.008a5.258 5.258 0 0 1-5.334-5.265A5.256 5.256 0 0 1 7.758 2.5ZM7.266 5v2.266H5v1h2.266V10.5h1V8.266H10.5v-1H8.266V5Z" style="color:#000;vector-effect:non-scaling-stroke;fill:currentColor;-inkscape-stroke:none"/></svg>