<svg xmlns="http://www.w3.org/2000/svg" fill="none" viewBox="0 0 18 18"><path d="M7.766 1.5A6.274 6.274 0 0 0 1.5 7.766a6.272 6.272 0 0 0 6.266 6.263c1.544 0 2.912-.62 4.005-1.55l3.875 3.875.708-.708-3.875-3.875c.93-1.093 1.55-2.461 1.55-4.005A6.272 6.272 0 0 0 7.766 1.5Zm0 1a5.257 5.257 0 0 1 5.263 5.266 5.255 5.255 0 0 1-5.263 5.263A5.257 5.257 0 0 1 2.5 7.766 5.259 5.259 0 0 1 7.766 2.5ZM5 7.266v1h5.646v-1z" style="color:#000;vector-effect:non-scaling-stroke;fill:currentColor;-inkscape-stroke:none"/></svg>